<svg xmlns="http://www.w3.org/2000/svg" viewBox="0 0 32 32" fill="none">
  <rect width="32" height="32" rx="7" fill="#ECF0F4"/>
  <g transform="translate(1.3 1.6) scale(0.92)">
    <path d="M7 3.5H25A4.5 4.5 0 0 1 29.5 8V18A4.5 4.5 0 0 1 25 22.5H13L8.5 28.2V22.5H7A4.5 4.5 0 0 1 2.5 18V8A4.5 4.5 0 0 1 7 3.5Z" stroke="#18232F" stroke-width="2.6" stroke-linejoin="round"/>
    <g fill="#18232F" opacity="0.3">
      <rect x="7" y="7.9" width="6.2" height="2.2" rx="1.1"/>
      <rect x="15.2" y="7.9" width="7.8" height="2.2" rx="1.1"/>
      <rect x="17.4" y="11.9" width="5.6" height="2.2" rx="1.1"/>
    </g>
    <rect x="7" y="11.9" width="8.4" height="2.2" rx="1.1" fill="#1E609F"/>
    <rect x="7" y="15.9" width="6.6" height="2.2" rx="1.1" fill="#72C4F3"/>
  </g>
</svg>
